<svg width="48" height="49" viewBox="0 0 48 49" fill="none" xmlns="http://www.w3.org/2000/svg">
<path d="M24 48.3143C37.2548 48.3143 48 37.5692 48 24.3143C48 11.0595 37.2548 0.314331 24 0.314331C10.7452 0.314331 0 11.0595 0 24.3143C0 37.5692 10.7452 48.3143 24 48.3143Z" fill="black"/>
<path d="M29.8552 18.1776C31.2573 18.1776 32.394 17.0409 32.394 15.6388C32.394 14.2366 31.2573 13.1 29.8552 13.1C28.4531 13.1 27.3164 14.2366 27.3164 15.6388C27.3164 17.0409 28.4531 18.1776 29.8552 18.1776Z" fill="white"/>
<path d="M32.5062 19.8424H20.8846V19.0808C20.8846 17.5851 22.3803 17.5568 23.1419 17.5568C24.0158 17.5568 24.4117 17.6418 24.4117 17.6418V13.5223C23.794 13.4453 23.172 13.4078 22.5494 13.4099C20.1231 13.4099 15.637 14.0864 15.637 19.2216V19.8745H13.5205V23.6832H15.637V31.7238H13.6622V35.5325H23.1967V31.72H20.8827V23.6794H27.2274V31.72H25.2555V35.5287H34.4819V31.72H32.5062V19.8424Z" fill="white"/>
</svg>
