<svg width="48" height="48" viewBox="0 0 48 48" fill="none" xmlns="http://www.w3.org/2000/svg">
<path d="M47.4999 3.73524V3.73821V43.8868C47.4999 45.8198 46.029 47.5 44.1492 47.5H4.10142C2.19157 47.5 0.5 45.7886 0.5 43.8868V3.73821C0.5 1.90756 2.12863 0.5 4.10142 0.5H44.161C46.0921 0.5 47.511 1.86843 47.4999 3.73524ZM14.8789 40.5104H15.3789V40.0104V18.63V18.13H14.8789H8.00249H7.50249V18.63V40.0104V40.5104H8.00249H14.8789ZM15.8921 11.6906H15.8923L15.892 11.6786C15.8649 10.5229 15.4707 9.47559 14.7405 8.71309C14.0062 7.9465 12.9649 7.5025 11.7161 7.5025C10.4679 7.5025 9.40726 7.94881 8.65872 8.71362C7.91205 9.47652 7.50356 10.5279 7.50356 11.6904C7.50356 13.9918 9.12764 15.8793 11.6293 15.8793H11.6786C12.9473 15.8793 14.0089 15.422 14.7526 14.651C15.4934 13.883 15.8915 12.8323 15.8921 11.6906ZM40.0103 40.5104H40.5103L40.5103 40.0104L40.5114 27.5197C40.5114 24.2266 39.6341 21.7445 38.1083 20.0812C36.5786 18.4136 34.4524 17.6296 32.0828 17.6296C30.1608 17.6296 28.7592 18.1743 27.7034 18.9258C27.1791 19.2989 26.7463 19.719 26.3814 20.1357V18.63V18.13H25.8814H19.005H18.505V18.63V40.0104V40.5104H19.005H25.8814H26.3814V40.0104V27.8325C26.3814 27.2143 26.4342 26.688 26.5808 26.3362L26.5808 26.3363L26.5836 26.3294C27.0376 25.1929 28.0186 24.1057 29.6453 24.1057C30.7401 24.1057 31.4494 24.5151 31.9086 25.193C32.3894 25.9028 32.6339 26.9651 32.6339 28.32V40.0104V40.5104H33.1339H40.0103Z" fill="black" stroke="black"/>
</svg>
